<svg width="24" height="24" viewBox="0 0 24 24" fill="none" xmlns="http://www.w3.org/2000/svg">
<g clip-path="url(#clip0_0_40)">
<path d="M20.4853 3.51473C18.2188 1.24823 15.2053 0 12 0C8.79469 0 5.78123 1.24823 3.51469 3.51473C1.24823 5.78123 0 8.79469 0 12C0 15.2053 1.24823 18.2188 3.51469 20.4853C5.78123 22.7518 8.79469 24 12 24C15.2053 24 18.2188 22.7518 20.4853 20.4853C22.7518 18.2188 24 15.2053 24 12C24 8.79469 22.7518 5.78123 20.4853 3.51473ZM12 22.5938C9.14794 22.5938 6.55584 21.4605 4.64944 19.621C5.68181 16.4666 8.64783 14.2969 12 14.2969C15.3522 14.2969 18.3182 16.4666 19.3506 19.621C17.4442 21.4605 14.8521 22.5938 12 22.5938ZM8.48438 9.375C8.48438 7.43648 10.0615 5.85938 12 5.85938C13.9385 5.85938 15.5156 7.43648 15.5156 9.375C15.5156 11.3135 13.9385 12.8906 12 12.8906C10.0615 12.8906 8.48438 11.3135 8.48438 9.375ZM20.4066 18.4385C19.372 16.0181 17.3407 14.179 14.8858 13.3596C16.1186 12.4642 16.9219 11.0118 16.9219 9.375C16.9219 6.66108 14.7139 4.45312 12 4.45312C9.28608 4.45312 7.07812 6.66108 7.07812 9.375C7.07812 11.0118 7.88142 12.4642 9.11428 13.3596C6.65925 14.179 4.62797 16.0181 3.59344 18.4385C2.22253 16.6528 1.40625 14.4201 1.40625 12C1.40625 6.15858 6.15858 1.40625 12 1.40625C17.8414 1.40625 22.5938 6.15858 22.5938 12C22.5938 14.4201 21.7775 16.6528 20.4066 18.4385Z" fill="#2F2E57"/>
</g>
<defs>
<clipPath id="clip0_0_40">
<rect width="24" height="24" fill="white"/>
</clipPath>
</defs>
</svg>
