<svg width="52" height="52" viewBox="0 0 52 52" fill="none" xmlns="http://www.w3.org/2000/svg">
<rect x="0.5" y="0.5" width="51" height="51" rx="25.5" fill="#37BD21"/>
<g clip-path="url(#clip0_1_1532)">
<path d="M17.7055 30.6125C20.4672 33.9138 23.7917 36.5131 27.5862 38.3523C29.0309 39.0369 30.9629 39.8492 33.1154 39.9884C33.2488 39.9942 33.3765 40 33.5099 40C34.9546 40 36.115 39.501 37.0607 38.4741C37.0665 38.4683 37.0781 38.4567 37.0839 38.4451C37.4204 38.039 37.8033 37.6734 38.2037 37.2847C38.4764 37.0236 38.7548 36.7509 39.0217 36.4724C40.2575 35.1844 40.2575 33.5483 39.0101 32.3009L35.5232 28.8139C34.9314 28.1989 34.2236 27.874 33.4809 27.874C32.7383 27.874 32.0246 28.1989 31.4154 28.8081L29.3384 30.8852C29.1469 30.775 28.9496 30.6763 28.764 30.5835C28.5319 30.4675 28.3172 30.3572 28.1258 30.2354C26.2343 29.0344 24.517 27.4679 22.875 25.4546C22.0454 24.4045 21.4884 23.5226 21.0996 22.6233C21.645 22.1301 22.1556 21.6138 22.6488 21.109C22.8228 20.9291 23.0027 20.7493 23.1825 20.5694C23.8091 19.9428 24.1456 19.2176 24.1456 18.4807C24.1456 17.7439 23.8149 17.0186 23.1825 16.392L21.4536 14.6631C21.2505 14.46 21.059 14.2627 20.8618 14.0597C20.4788 13.6651 20.0785 13.259 19.684 12.8935C19.0864 12.3075 18.3844 12 17.6417 12C16.9049 12 16.197 12.3075 15.5762 12.8993L13.4063 15.0692C12.6173 15.8583 12.1705 16.8156 12.0777 17.9237C11.9674 19.3104 12.2227 20.7841 12.8841 22.5653C13.8995 25.3212 15.4312 27.8798 17.7055 30.6125ZM13.4933 18.0456C13.563 17.2739 13.8589 16.6299 14.4159 16.0729L16.5742 13.9146C16.9107 13.5897 17.282 13.4215 17.6417 13.4215C17.9956 13.4215 18.3553 13.5897 18.6861 13.9262C19.0748 14.286 19.4403 14.6631 19.8348 15.0634C20.0321 15.2665 20.2352 15.4695 20.4382 15.6784L22.1672 17.4074C22.5269 17.7671 22.7126 18.1326 22.7126 18.4923C22.7126 18.8521 22.5269 19.2176 22.1672 19.5773C21.9873 19.7571 21.8075 19.9428 21.6276 20.1227C21.088 20.668 20.5833 21.1844 20.0263 21.6776C20.0147 21.6892 20.0089 21.695 19.9973 21.7066C19.5157 22.1881 19.5912 22.6465 19.7072 22.9946C19.713 23.012 19.7188 23.0236 19.7246 23.041C20.1713 24.1144 20.7921 25.1355 21.7611 26.3539C23.5016 28.5006 25.335 30.1658 27.3541 31.448C27.6036 31.6104 27.8705 31.7381 28.12 31.8657C28.352 31.9818 28.5667 32.092 28.7582 32.2138C28.7814 32.2254 28.7988 32.237 28.822 32.2487C29.0134 32.3473 29.1991 32.3937 29.3848 32.3937C29.8489 32.3937 30.1506 32.0978 30.2493 31.9992L32.4192 29.8293C32.7557 29.4927 33.1212 29.3129 33.4809 29.3129C33.9219 29.3129 34.2816 29.5856 34.5079 29.8293L38.0064 33.322C38.7026 34.0182 38.6968 34.7725 37.989 35.5093C37.7453 35.7704 37.49 36.0199 37.2173 36.281C36.8112 36.6755 36.3877 37.0816 36.0047 37.54C35.3375 38.2594 34.5427 38.5959 33.5157 38.5959C33.4171 38.5959 33.3127 38.5901 33.214 38.5843C31.311 38.4625 29.5414 37.7199 28.2128 37.0874C24.604 35.3411 21.4362 32.8637 18.8079 29.719C16.6438 27.114 15.1875 24.6888 14.2244 22.0895C13.6268 20.494 13.4005 19.2118 13.4933 18.0456Z" fill="white"/>
</g>
<rect x="0.5" y="0.5" width="51" height="51" rx="25.5" stroke="white"/>
<defs>
<clipPath id="clip0_1_1532">
<rect width="28" height="28" fill="white" transform="translate(12 12)"/>
</clipPath>
</defs>
</svg>
