<svg width="29" height="24" viewBox="0 0 29 24" fill="none" xmlns="http://www.w3.org/2000/svg">
<path d="M6.865 23.632C9.809 23.632 11.921 21.584 11.921 18.256C11.921 15.248 9.617 13.392 6.865 13.392C5.457 13.392 4.241 14.032 3.153 14.864L6.609 19.472L6.161 13.584C6.161 9.296 8.209 6.544 12.433 4.368L10.257 0.143997C3.793 3.472 0.593 8.4 0.593 14.928C0.593 20.496 2.769 23.632 6.865 23.632ZM22.801 23.632C25.809 23.632 27.921 21.584 27.921 18.256C27.921 15.248 25.553 13.392 22.801 13.392C21.457 13.392 20.241 14.032 19.153 14.864L22.545 19.472L22.161 13.584C22.161 9.296 24.209 6.544 28.369 4.368L26.257 0.143997C19.793 3.472 16.593 8.4 16.593 14.928C16.593 20.496 18.769 23.632 22.801 23.632Z" fill="#DDDDE9"/>
</svg>
