<svg width="52" height="53" viewBox="0 0 52 53" fill="none" xmlns="http://www.w3.org/2000/svg">
<rect x="0.75" y="1.25" width="50.5" height="50.5" rx="25.25" fill="white" fill-opacity="0.07"/>
<g clip-path="url(#clip0_13_436)">
<path d="M17.7054 31.1125C20.4671 34.4138 23.7916 37.0131 27.586 38.8523C29.0307 39.5369 30.9627 40.3491 33.1152 40.4884C33.2487 40.4942 33.3763 40.5 33.5098 40.5C34.9544 40.5 36.1148 40.001 37.0605 38.9741C37.0663 38.9683 37.0779 38.9567 37.0837 38.9451C37.4203 38.539 37.8032 38.1734 38.2035 37.7847C38.4762 37.5236 38.7547 37.2509 39.0216 36.9724C40.2574 35.6844 40.2574 34.0483 39.01 32.8009L35.523 29.3139C34.9312 28.6989 34.2234 28.374 33.4808 28.374C32.7381 28.374 32.0245 28.6989 31.4153 29.3081L29.3382 31.3852C29.1467 31.275 28.9495 31.1763 28.7638 31.0835C28.5317 30.9675 28.3171 30.8572 28.1256 30.7354C26.2342 29.5344 24.5168 27.9679 22.8749 25.9546C22.0452 24.9045 21.4882 24.0226 21.0995 23.1233C21.6449 22.6301 22.1554 22.1138 22.6486 21.609C22.8227 21.4291 23.0025 21.2493 23.1824 21.0694C23.809 20.4428 24.1455 19.7176 24.1455 18.9807C24.1455 18.2439 23.8148 17.5186 23.1824 16.892L21.4534 15.1631C21.2503 14.96 21.0589 14.7627 20.8616 14.5597C20.4787 14.1651 20.0784 13.759 19.6838 13.3935C19.0862 12.8075 18.3842 12.5 17.6416 12.5C16.9047 12.5 16.1969 12.8075 15.5761 13.3993L13.4062 15.5692C12.6171 16.3583 12.1704 17.3156 12.0775 18.4237C11.9673 19.8104 12.2226 21.2841 12.884 23.0653C13.8993 25.8212 15.431 28.3798 17.7054 31.1125ZM13.4932 18.5456C13.5628 17.7739 13.8587 17.1299 14.4157 16.5729L16.574 14.4146C16.9105 14.0897 17.2818 13.9215 17.6416 13.9215C17.9955 13.9215 18.3552 14.0897 18.6859 14.4262C19.0746 14.786 19.4402 15.1631 19.8347 15.5634C20.0319 15.7665 20.235 15.9695 20.4381 16.1784L22.167 17.9074C22.5268 18.2671 22.7124 18.6326 22.7124 18.9923C22.7124 19.3521 22.5268 19.7176 22.167 20.0773C21.9872 20.2571 21.8073 20.4428 21.6275 20.6227C21.0879 21.168 20.5831 21.6844 20.0261 22.1776C20.0145 22.1892 20.0087 22.195 19.9971 22.2066C19.5156 22.6881 19.591 23.1465 19.707 23.4946C19.7128 23.512 19.7186 23.5236 19.7244 23.541C20.1712 24.6144 20.792 25.6355 21.7609 26.8539C23.5015 29.0006 25.3349 30.6658 27.3539 31.948C27.6034 32.1104 27.8703 32.2381 28.1198 32.3657C28.3519 32.4818 28.5665 32.592 28.758 32.7138C28.7812 32.7254 28.7986 32.737 28.8218 32.7487C29.0133 32.8473 29.199 32.8937 29.3846 32.8937C29.8488 32.8937 30.1505 32.5978 30.2491 32.4992L32.419 30.3293C32.7555 29.9927 33.121 29.8129 33.4808 29.8129C33.9217 29.8129 34.2814 30.0856 34.5077 30.3293L38.0063 33.822C38.7025 34.5182 38.6967 35.2725 37.9888 36.0093C37.7452 36.2704 37.4899 36.5199 37.2172 36.781C36.8111 37.1755 36.3875 37.5816 36.0046 38.04C35.3374 38.7594 34.5425 39.0959 33.5156 39.0959C33.4169 39.0959 33.3125 39.0901 33.2139 39.0843C31.3109 38.9625 29.5413 38.2199 28.2126 37.5874C24.6038 35.8411 21.436 33.3637 18.8077 30.219C16.6436 27.614 15.1874 25.1888 14.2242 22.5895C13.6266 20.994 13.4004 19.7118 13.4932 18.5456Z" fill="white"/>
</g>
<rect x="0.75" y="1.25" width="50.5" height="50.5" rx="25.25" stroke="white" stroke-width="1.5"/>
<defs>
<clipPath id="clip0_13_436">
<rect width="28" height="28" fill="white" transform="translate(12 12.5)"/>
</clipPath>
</defs>
</svg>
