<svg width="48" height="49" viewBox="0 0 48 49" fill="none" xmlns="http://www.w3.org/2000/svg">
<g clip-path="url(#clip0_1_3454)">
<circle cx="24" cy="17.1572" r="15" fill="white"/>
<path d="M8.25715 14.3336C7.76192 15.1206 7.20001 16.0133 7.20001 17.0882C7.20001 18.1632 7.76192 19.0558 8.25715 19.8429C8.55239 20.3132 8.83811 20.7643 8.94287 21.1578C9.05715 21.5801 9.02858 22.1272 9.00954 22.7031C8.97144 23.6245 8.93334 24.6611 9.44763 25.5537C9.97144 26.4656 10.8953 26.9455 11.7048 27.3774C12.2095 27.6461 12.6857 27.8957 12.981 28.1932C13.2762 28.4908 13.5238 28.9707 13.7905 29.4794C14.0667 30.0169 14.3905 30.6023 14.8286 31.0918L7.64763 42.0912C7.43811 42.4176 7.43811 42.8303 7.65716 43.1566C7.8762 43.4734 8.25716 43.6365 8.63811 43.5597L14.2095 42.4368L16 47.5238C16.1238 47.8885 16.4572 48.138 16.8381 48.1572H16.8952C17.2476 48.1572 17.581 47.9557 17.7429 47.6293L23.9905 35.171L30.2572 47.6197C30.4191 47.9461 30.7524 48.1476 31.1048 48.1476H31.1619C31.5429 48.1188 31.8667 47.8693 32 47.5142L33.7905 42.4272L39.3619 43.5501C39.7429 43.6269 40.1238 43.4638 40.3429 43.147C40.5619 42.8303 40.5619 42.408 40.3524 42.0816L33.1714 31.0822C33.6095 30.5927 33.9238 30.0169 34.2095 29.4698C34.4762 28.9611 34.7238 28.4812 35.0191 28.1836C35.3143 27.8861 35.7905 27.6365 36.2952 27.3678C37.1048 26.9359 38.0286 26.456 38.5524 25.5442C39.0667 24.6515 39.0286 23.6053 38.9905 22.6935C38.9714 22.1176 38.9429 21.5705 39.0572 21.1482C39.1619 20.7547 39.4476 20.3132 39.7429 19.8333C40.2381 19.0462 40.8 18.1536 40.8 17.0786C40.8 16.0037 40.2381 15.111 39.7429 14.324C39.4476 13.8537 39.1619 13.4026 39.0572 13.0091C38.9429 12.5867 38.9714 12.0397 38.9905 11.4638C39.0286 10.5424 39.0667 9.50576 38.5524 8.61314C38.0286 7.70132 37.1048 7.22141 36.2952 6.7895C35.7905 6.52075 35.3143 6.2712 35.0191 5.97366C34.7238 5.67612 34.4762 5.19622 34.2095 4.68752C33.781 3.87168 33.3048 2.94067 32.4 2.41278C31.5143 1.89448 30.4762 1.93287 29.5714 1.97126C29 2.00006 28.4572 2.01925 28.0381 1.90408C27.6476 1.7985 27.2095 1.51056 26.7333 1.21302C25.9429 0.723513 25.0572 0.157227 23.9905 0.157227C22.9238 0.157227 22.0381 0.723513 21.2572 1.22261C20.7905 1.52015 20.3429 1.8081 19.9524 1.91368C19.5333 2.02885 18.9905 2.00006 18.4191 1.98086C17.5048 1.94247 16.4762 1.90408 15.5905 2.42237C14.6857 2.95027 14.2095 3.88128 13.781 4.69712C13.5143 5.20582 13.2667 5.68572 12.9714 5.98326C12.6762 6.2808 12.2 6.53035 11.6953 6.7991C10.8857 7.23101 9.96192 7.71092 9.43811 8.62273C8.92382 9.51535 8.96192 10.5615 9.00001 11.4734C9.01906 12.0492 9.04763 12.5963 8.93335 13.0187C8.83811 13.4122 8.55239 13.8537 8.25715 14.3336ZM17.0286 44.7595L15.7048 40.9971C15.5429 40.5459 15.0857 40.2868 14.6191 40.3732L10.4762 41.2082L16.4476 32.0612C17.1048 32.2148 17.7905 32.2052 18.4191 32.1764C18.9905 32.1572 19.5333 32.1284 19.9524 32.2436C20.3429 32.3492 20.781 32.6371 21.2572 32.9347C21.6667 33.2034 22.1143 33.4818 22.6 33.6833L17.0286 44.7595ZM33.3524 40.3828C32.8857 40.2868 32.4286 40.5555 32.2667 41.0067L30.9429 44.7691L25.3714 33.7025C25.8572 33.4914 26.2952 33.213 26.7143 32.9539C27.181 32.6563 27.6286 32.3684 28.0191 32.2628C28.4381 32.1476 28.981 32.1668 29.5524 32.1956C30.181 32.2244 30.8667 32.234 31.5238 32.0804L37.4952 41.2274L33.3524 40.3828ZM9.86668 15.3606C10.2286 14.7847 10.6095 14.1896 10.781 13.5178C10.9714 12.8171 10.9429 12.0972 10.9143 11.3966C10.8857 10.6767 10.8572 9.99526 11.0952 9.58254C11.3429 9.16023 11.9429 8.84349 12.581 8.49796C13.1905 8.18122 13.8191 7.84529 14.3238 7.33659C14.8286 6.82789 15.1524 6.19442 15.4762 5.58014C15.8095 4.93707 16.1238 4.32279 16.5524 4.08284C16.9619 3.84289 17.6381 3.87168 18.3524 3.90048C19.0476 3.92927 19.7619 3.95807 20.4572 3.76611C21.1333 3.58374 21.7238 3.20942 22.2857 2.84469C22.8952 2.45117 23.4762 2.07684 23.9905 2.07684C24.5048 2.07684 25.0857 2.45117 25.6952 2.84469C26.2667 3.20942 26.8572 3.58374 27.5238 3.76611C28.2191 3.95807 28.9333 3.92927 29.6286 3.90048C30.3429 3.87168 31.0191 3.84289 31.4286 4.08284C31.8476 4.33239 32.1619 4.93707 32.5048 5.58014C32.8191 6.19442 33.1524 6.82789 33.6572 7.33659C34.1619 7.84529 34.7905 8.17162 35.4 8.49796C36.0381 8.83389 36.6476 9.15063 36.8857 9.58254C37.1238 9.99526 37.0952 10.6767 37.0667 11.3966C37.0381 12.0972 37.0095 12.8171 37.2 13.5178C37.381 14.1992 37.7524 14.7847 38.1143 15.3606C38.5048 15.9845 38.8762 16.5699 38.8762 17.0786C38.8762 17.5873 38.5048 18.1824 38.1143 18.7967C37.7524 19.3726 37.3714 19.9677 37.2 20.6395C37.0095 21.3402 37.0381 22.06 37.0667 22.7607C37.0952 23.4806 37.1238 24.162 36.8857 24.5747C36.6381 24.9971 36.0381 25.3138 35.4 25.6593C34.7905 25.9761 34.1619 26.312 33.6572 26.8207C33.1524 27.3294 32.8286 27.9629 32.5048 28.5771C32.1714 29.2202 31.8572 29.8345 31.4286 30.0744C31.0191 30.3144 30.3429 30.2856 29.6286 30.2568C28.9333 30.228 28.2191 30.1992 27.5238 30.3912C26.8476 30.5735 26.2572 30.9479 25.6952 31.3126C25.0762 31.7061 24.4952 32.0804 23.9905 32.0804C23.4762 32.0804 22.8952 31.7061 22.2857 31.3126C21.7143 30.9479 21.1238 30.5639 20.4572 30.3912C20.0095 30.276 19.5619 30.2376 19.1143 30.2376C18.8572 30.2376 18.6 30.2472 18.3524 30.2568C17.6381 30.2856 16.9619 30.3144 16.5524 30.0744C16.1333 29.8249 15.8191 29.2202 15.4762 28.5771C15.1619 27.9629 14.8286 27.3294 14.3238 26.8207C13.8191 26.312 13.1905 25.9857 12.581 25.6593C11.9429 25.3234 11.3333 25.0067 11.0952 24.5747C10.8572 24.162 10.8857 23.4806 10.9143 22.7607C10.9429 22.06 10.9714 21.3402 10.781 20.6395C10.6 19.9581 10.2286 19.363 9.86668 18.7967C9.4762 18.1728 9.10477 17.5873 9.10477 17.0786C9.10477 16.5699 9.46668 15.9845 9.86668 15.3606Z" fill="#09DCCF"/>
<path d="M24 28.9573C30.6166 28.9573 36 23.5739 36 16.9573C36 10.3406 30.6166 4.95728 24 4.95728C17.3834 4.95728 12 10.3406 12 16.9573C12 23.5739 17.3834 28.9573 24 28.9573Z" fill="#09DCCF"/>
<path d="M19.8496 19.021L19.2066 22.965C19.1481 23.3522 19.2943 23.7293 19.5963 23.9637C19.8983 24.1879 20.2978 24.2185 20.6193 24.0452L24 22.1803L27.3904 24.0452C27.5366 24.1268 27.6925 24.1573 27.8484 24.1573C28.0529 24.1573 28.2478 24.0962 28.4232 23.9637C28.7252 23.7395 28.8713 23.3522 28.8129 22.965L28.1699 19.021L30.9076 16.2287C31.1706 15.9535 31.268 15.556 31.1511 15.179C31.0342 14.8121 30.7322 14.5369 30.362 14.486L26.5721 13.9153L24.8768 10.328C24.7112 9.98153 24.3702 9.75732 24 9.75732C23.6298 9.75732 23.2888 9.98153 23.1231 10.328L21.4279 13.9153L17.638 14.486C17.2678 14.5369 16.9658 14.8121 16.8489 15.179C16.7319 15.5459 16.8294 15.9535 17.0924 16.2287L19.8496 19.021Z" fill="#FFF8B5"/>
</g>
<defs>
<clipPath id="clip0_1_3454">
<rect width="48" height="48" fill="white" transform="translate(0 0.157227)"/>
</clipPath>
</defs>
</svg>
