<!-- Generated by IcoMoon.io -->
<svg version="1.1" xmlns="http://www.w3.org/2000/svg" width="1024" height="1024" viewBox="0 0 1024 1024">
<title></title>
<g id="icomoon-ignore">
</g>
<path fill="#000" d="M995.84 28.928c-29.952-29.952-78.336-29.952-108.288 0l-375.552 374.784-375.552-375.552c-29.952-29.952-78.336-29.952-108.288 0s-29.952 78.336 0 108.288l375.552 375.552-375.552 375.552c-29.952 29.952-29.952 78.336 0 108.288s78.336 29.952 108.288 0l375.552-375.552 375.552 375.552c29.952 29.952 78.336 29.952 108.288 0s29.952-78.336 0-108.288l-375.552-375.552 375.552-375.552c29.184-29.184 29.184-78.336 0-107.52z"></path>
</svg>
