<svg width="64" height="65" viewBox="0 0 64 65" fill="none" xmlns="http://www.w3.org/2000/svg">
<g clip-path="url(#clip0_13_118)">
<path d="M32 0.5C14.3541 0.5 0 14.8555 0 32.5C0 50.1445 14.3541 64.5 32 64.5C49.6459 64.5 64 50.1445 64 32.5C64 14.8555 49.6459 0.5 32 0.5ZM32 61.8334C15.8255 61.8334 2.66663 48.6745 2.66663 32.5C2.66663 16.3255 15.8255 3.16663 32 3.16663C48.1745 3.16663 61.3334 16.3255 61.3334 32.5C61.3334 48.6745 48.1745 61.8334 32 61.8334Z" fill="#F0F0F0"/>
<path d="M44.7214 31.379L26.0548 19.379C25.6459 19.1121 25.1173 19.0978 24.6954 19.3295C24.2656 19.5639 24 20.0119 24 20.5001V44.5001C24 44.9884 24.2656 45.4364 24.6954 45.6708C24.8933 45.7789 25.1146 45.8335 25.3334 45.8335C25.5834 45.8335 25.836 45.7631 26.0548 45.6213L44.7214 33.6213C45.1016 33.3765 45.3334 32.9533 45.3334 32.5001C45.3334 32.047 45.1016 31.6239 44.7214 31.379ZM26.6666 42.0574V22.9429L41.5339 32.5001L26.6666 42.0574Z" fill="white"/>
</g>
<defs>
<clipPath id="clip0_13_118">
<rect width="64" height="64" fill="white" transform="translate(0 0.5)"/>
</clipPath>
</defs>
</svg>
