<svg width="20" height="20" viewBox="0 0 20 20" fill="none" xmlns="http://www.w3.org/2000/svg">
<g clip-path="url(#clip0_1_2128)">
<path d="M16.6926 10.8296C16.6446 10.8053 16.5965 10.7933 16.548 10.7933C16.4436 10.7933 16.3517 10.8333 16.2715 10.9136L15.5018 11.6832C15.4298 11.7555 15.3937 11.8435 15.3937 11.9479V15.0023C15.3937 15.5316 15.2057 15.9844 14.8286 16.3614C14.4518 16.7382 13.9987 16.9266 13.4696 16.9266H3.4636C2.93437 16.9266 2.48133 16.7382 2.10454 16.3614C1.72767 15.9844 1.53934 15.5317 1.53934 15.0023V4.99659C1.53934 4.46744 1.72767 4.01445 2.10454 3.63754C2.48133 3.26071 2.93437 3.07233 3.4636 3.07233H13.4696C13.6461 3.07233 13.8264 3.09638 14.0108 3.14453C14.0589 3.16045 14.095 3.16858 14.1188 3.16858C14.2231 3.16858 14.3154 3.12861 14.3955 3.04845L14.9848 2.45915C15.0809 2.36307 15.1172 2.24672 15.0929 2.11054C15.0688 1.98223 14.9966 1.88998 14.8763 1.83392C14.4437 1.63375 13.9744 1.5332 13.4693 1.5332H3.4636C2.50951 1.5332 1.69368 1.87196 1.01617 2.54946C0.338752 3.22705 0 4.04276 0 4.99689V15.0029C0 15.9568 0.338752 16.7726 1.01622 17.4501C1.69372 18.1278 2.50956 18.4666 3.46364 18.4666H13.4696C14.4235 18.4666 15.2394 18.1278 15.9169 17.4501C16.5945 16.7726 16.9335 15.9569 16.9335 15.0029V11.1783C16.9335 11.01 16.8529 10.8938 16.6926 10.8296Z" fill="#403CEB"/>
<path d="M19.7114 3.92656L18.3884 2.60353C18.196 2.41115 17.9673 2.31494 17.7027 2.31494C17.4383 2.31494 17.2095 2.41115 17.0173 2.60353L9.23608 10.3847L6.07333 7.22171C5.88087 7.02921 5.65231 6.93313 5.38782 6.93313C5.12329 6.93313 4.89481 7.02921 4.70231 7.22171L3.37944 8.54458C3.18702 8.737 3.09073 8.96556 3.09073 9.23022C3.09073 9.49475 3.18702 9.72322 3.37944 9.91573L8.55074 15.087C8.7432 15.2796 8.97176 15.3756 9.23625 15.3756C9.50074 15.3756 9.72926 15.2796 9.92176 15.087L19.7113 5.29754C19.9036 5.10516 20 4.87656 20 4.61203C20 4.3475 19.9038 4.11894 19.7114 3.92656Z" fill="#403CEB"/>
</g>
<defs>
<clipPath id="clip0_1_2128">
<rect width="20" height="20" fill="white"/>
</clipPath>
</defs>
</svg>
