<svg width="24" height="18" viewBox="0 0 24 18" fill="none" xmlns="http://www.w3.org/2000/svg">
<path d="M23.5348 1.82326C23.5332 1.82326 23.5317 1.82326 23.5301 1.82326H21.9531V1.28362C21.9616 1.07003 21.8234 0.878073 21.6181 0.818411C20.5233 0.531495 19.3959 0.387629 18.264 0.390421C16.4032 0.390421 13.8678 0.809107 11.993 2.71645C10.1322 0.790498 7.57821 0.390421 5.72204 0.390421C4.59019 0.387629 3.46276 0.531495 2.3679 0.818411C2.16263 0.878073 2.02446 1.07003 2.03295 1.28362V1.8186H0.465206C0.208296 1.8186 0 2.0269 0 2.28381V17.1425C0 17.3994 0.208296 17.6077 0.465206 17.6077C0.545106 17.6075 0.623609 17.5867 0.693158 17.5472C0.739678 17.524 5.39174 14.9793 11.886 16.6168H11.9558H11.9977C12.0348 16.6213 12.0722 16.6213 12.1093 16.6168C18.6222 14.9653 23.2743 17.5054 23.3022 17.5472C23.4461 17.6303 23.6235 17.6303 23.7674 17.5472C23.9104 17.4647 23.999 17.3124 24 17.1472V2.28846C24 2.03155 23.7918 1.82326 23.5348 1.82326ZM0.930413 16.4028V2.75367H2.04226V14.421C2.03935 14.678 2.24526 14.8886 2.50217 14.8915C2.52729 14.8918 2.55241 14.89 2.57724 14.8863C3.53964 14.7393 4.51128 14.6616 5.48478 14.6537C6.8333 14.6303 8.17618 14.8331 9.45765 15.2538C6.56377 14.9038 3.62844 15.2994 0.930413 16.4028ZM5.48478 13.7279C4.63863 13.7298 3.79347 13.7842 2.95406 13.8907V1.65113C3.85982 1.44935 4.78476 1.34636 5.71274 1.34409C7.45261 1.34409 9.85307 1.74417 11.5185 3.62361L11.5325 15.2119C10.5648 14.5792 8.6761 13.7279 5.48478 13.7279ZM12.4629 3.62361C14.1283 1.76278 16.5288 1.34409 18.2687 1.34409C19.1966 1.34683 20.1215 1.44975 21.0273 1.65113V13.8907C20.1926 13.7832 19.3521 13.7272 18.5106 13.7232C15.3379 13.7232 13.4445 14.5746 12.4629 15.2072V3.62361V3.62361ZM23.0649 16.4028C20.3612 15.2963 17.4191 14.9007 14.5191 15.2538C15.8066 14.8316 17.1559 14.6287 18.5106 14.6537C19.4902 14.6591 20.4681 14.7353 21.4367 14.8816C21.6907 14.9202 21.9279 14.7455 21.9665 14.4915C21.9702 14.4666 21.972 14.4415 21.9717 14.4164V2.75367H23.0835L23.0649 16.4028Z" fill="white"/>
</svg>
