<svg width="471" height="447" viewBox="0 0 471 447" fill="none" xmlns="http://www.w3.org/2000/svg">
<g opacity="0.1">
<path d="M36.7664 279.49L-85.0092 279.49L-85.0091 284.547L38.817 284.389L85.1927 240.773L239.621 240.615L280.318 199.844C283.157 202.056 286.469 203.162 290.097 203.32C294.199 203.32 298.142 201.582 300.982 198.738C303.979 195.735 305.556 191.942 305.556 187.833C305.556 183.725 303.821 179.774 300.982 176.93C297.985 173.927 294.199 172.347 290.098 172.347C281.58 172.347 274.639 179.3 274.639 187.834C274.639 190.678 275.428 193.681 277.005 196.209L237.57 235.716L83.2998 235.716L36.7664 279.49ZM279.371 187.834C279.371 182.145 284.103 177.404 289.94 177.246C292.779 177.246 295.461 178.352 297.354 180.248C299.404 182.302 300.351 184.831 300.351 187.676C300.351 190.52 299.246 193.207 297.354 195.103C295.303 197.157 292.779 198.105 289.94 198.105C287.1 198.105 284.419 196.999 282.526 195.103C280.475 193.365 279.371 190.678 279.371 187.834ZM72.7312 189.73L227.159 189.572L268.645 148.01L391.84 147.852C392.471 150.381 393.891 152.751 395.784 154.647C398.781 157.65 402.566 159.23 406.668 159.23C415.186 159.23 422.126 152.277 422.126 143.743C422.126 139.635 420.391 135.684 417.552 132.839C414.555 129.837 410.769 128.257 406.668 128.257C402.566 128.257 398.623 129.995 395.784 132.839C392.944 135.684 391.525 139.319 391.209 143.111L266.436 143.269L224.951 184.831L70.8383 184.673L24.4626 228.289L-97.3129 228.289L-97.3129 233.346L26.5132 233.188L72.7312 189.73ZM406.51 133.155C409.349 133.155 412.031 134.262 413.924 136.158C415.974 138.212 416.921 140.741 416.921 143.585C416.921 149.274 412.189 154.015 406.352 154.173C403.513 154.173 400.831 153.067 398.938 151.171C396.888 149.116 395.941 146.588 395.941 143.743C395.941 140.899 397.046 138.212 398.938 136.316C401.147 134.104 403.828 132.997 406.51 133.155ZM278.425 266.216L127.783 266.374C126.678 270.008 123.208 272.853 119.107 272.853C114.059 272.853 110.116 268.902 110.116 263.845C110.116 258.788 114.059 254.838 119.107 254.838C123.208 254.838 126.678 257.682 127.783 261.317L279.371 261.159L327.64 282.651C329.375 280.913 331.583 279.965 334.107 279.965C339.155 279.965 343.098 283.915 343.098 288.972C343.098 294.029 339.155 297.98 334.107 297.98C329.059 297.98 325.116 294.029 325.116 288.972C325.116 288.34 325.116 287.708 325.274 287.234L278.425 266.216ZM409.665 407.768C406.668 404.766 402.882 403.185 398.781 403.185C396.572 403.185 394.679 403.501 392.787 404.45L362.5 356.093L185.989 356.251L159.015 311.212L-292.596 310.422L-292.595 315.479L155.86 316.269L182.834 361.308L359.503 361.308L388.37 407.294C388.054 407.61 387.897 407.768 387.581 408.084C384.584 411.087 383.007 414.88 383.007 418.988C383.007 423.097 384.742 427.048 387.581 429.892C390.578 432.895 394.364 434.475 398.465 434.475C402.566 434.475 406.51 432.737 409.349 429.892C412.346 426.89 413.924 423.097 413.924 418.988C414.082 414.721 412.504 410.613 409.665 407.768ZM398.623 429.26C395.784 429.26 393.102 428.154 391.209 426.258C389.159 424.203 388.212 421.675 388.212 418.83C388.212 415.986 389.316 413.299 391.209 411.403C393.26 409.349 395.784 408.4 398.623 408.4C401.462 408.4 404.144 409.507 406.037 411.403C408.087 413.457 409.034 415.986 409.034 418.83C409.034 421.675 407.93 424.361 406.037 426.258C404.144 428.154 401.462 429.26 398.623 429.26ZM263.597 390.069C263.597 395.126 259.654 399.077 254.606 399.077C250.505 399.077 247.034 396.232 245.93 392.597L156.965 392.597L125.732 345.505L32.3498 345.505C31.2456 349.139 27.7753 351.984 23.6741 351.984C18.6264 351.984 14.6829 348.033 14.6829 342.976C14.6829 337.919 18.6263 333.969 23.674 333.969C27.7752 333.969 31.2455 336.813 32.3497 340.448L128.256 340.448L159.488 387.54L245.93 387.54C247.034 383.906 250.505 381.061 254.606 381.061C259.654 381.061 263.597 385.012 263.597 390.069ZM52.7319 76.9551L39.4817 94.3382L-165.108 94.4962L-165.108 89.4393L36.8001 89.4394L50.0503 72.0562L104.628 72.0562L120.876 88.3332L247.384 88.333L265.051 106.032L344.552 106.032C345.656 102.398 348.968 99.7112 353.07 99.7112C358.117 99.7112 362.061 103.662 362.061 108.719C362.061 113.776 358.117 117.726 353.07 117.726C348.969 117.726 345.34 114.724 344.394 110.931L263 110.931L245.333 93.232L118.825 93.232L102.578 76.9551L52.7319 76.9551ZM272.383 41.3098L303.142 15.8671L333.744 15.867L368.605 41.3097L409.302 41.3096C409.775 44.3121 411.353 47.1567 413.561 49.3691C416.558 52.3716 420.344 53.9519 424.445 53.9519C428.546 53.9519 432.49 52.2136 435.329 49.3691C438.326 46.3665 439.904 42.5738 439.904 38.4651C439.904 34.3563 438.168 30.4056 435.329 27.5611C432.332 24.5585 428.546 22.9782 424.445 22.9782C420.344 22.9782 416.4 24.7165 413.561 27.5611C411.195 29.9315 409.617 33.0921 409.144 36.4107L370.025 36.4107L335.164 10.9681L301.092 10.9682L270.332 36.4109L-109.98 36.2529L-109.98 41.3099L272.383 41.3098ZM424.603 27.8772C427.442 27.8772 430.124 28.9833 432.017 30.8797C434.067 32.934 435.014 35.4625 435.014 38.3071C435.014 41.1516 433.909 43.838 432.017 45.7344C429.966 47.7888 427.442 48.7369 424.603 48.7369C421.763 48.7369 419.082 47.6308 417.189 45.7344C415.612 44.1541 414.507 42.0997 414.192 39.8873L414.192 36.7267C414.507 34.5143 415.612 32.46 417.189 30.8797C419.24 28.8253 421.763 27.8772 424.603 27.8772Z" fill="white"/>
</g>
</svg>
