<svg width="470" height="447" viewBox="0 0 470 447" fill="none" xmlns="http://www.w3.org/2000/svg">
<g opacity="0.1">
<path d="M433.252 279.49L555.028 279.49L555.028 284.547L431.201 284.389L384.826 240.773L230.398 240.615L189.701 199.844C186.862 202.056 183.549 203.162 179.921 203.32C175.82 203.32 171.876 201.582 169.037 198.738C166.04 195.735 164.462 191.942 164.462 187.833C164.462 183.725 166.197 179.774 169.037 176.929C172.034 173.927 175.82 172.347 179.921 172.347C188.439 172.347 195.38 179.3 195.38 187.834C195.38 190.678 194.591 193.681 193.013 196.209L232.449 235.716L386.719 235.716L433.252 279.49ZM190.647 187.834C190.647 182.145 185.915 177.404 180.079 177.246C177.239 177.246 174.558 178.352 172.665 180.248C170.614 182.302 169.668 184.831 169.668 187.676C169.668 190.52 170.772 193.207 172.665 195.103C174.716 197.157 177.239 198.105 180.079 198.105C182.918 198.105 185.6 196.999 187.493 195.103C189.543 193.365 190.647 190.678 190.647 187.834ZM397.287 189.73L242.859 189.572L201.374 148.01L78.1783 147.852C77.5473 150.381 76.1277 152.751 74.2348 154.647C71.2377 157.65 67.452 159.23 63.3507 159.23C54.8327 159.23 47.8922 152.277 47.8922 143.743C47.8922 139.635 49.6273 135.684 52.4666 132.839C55.4637 129.837 59.2495 128.257 63.3507 128.257C67.452 128.257 71.3954 129.995 74.2348 132.839C77.0741 135.684 78.4938 139.319 78.8093 143.111L203.582 143.269L245.068 184.831L399.18 184.673L445.556 228.289L567.331 228.289L567.331 233.346L443.505 233.188L397.287 189.73ZM63.5084 133.155C60.6691 133.155 57.9876 134.262 56.0947 136.158C54.0441 138.212 53.0976 140.741 53.0976 143.585C53.0976 149.274 57.8298 154.015 63.6662 154.173C66.5055 154.173 69.1872 153.067 71.08 151.171C73.1307 149.116 74.0771 146.588 74.0771 143.743C74.0771 140.899 72.9729 138.212 71.08 136.316C68.8716 134.104 66.19 132.997 63.5084 133.155ZM191.594 266.216L342.236 266.374C343.34 270.008 346.81 272.853 350.912 272.853C355.959 272.853 359.903 268.902 359.903 263.845C359.903 258.788 355.959 254.838 350.912 254.838C346.81 254.838 343.34 257.682 342.236 261.317L190.647 261.159L142.379 282.651C140.644 280.913 138.435 279.965 135.911 279.965C130.864 279.965 126.92 283.915 126.92 288.972C126.92 294.029 130.864 297.98 135.911 297.98C140.959 297.98 144.903 294.029 144.903 288.972C144.903 288.34 144.903 287.708 144.745 287.234L191.594 266.216ZM60.3537 407.768C63.3508 404.766 67.1365 403.185 71.2378 403.185C73.4461 403.185 75.339 403.501 77.2319 404.45L107.518 356.093L284.03 356.251L311.003 311.212L762.614 310.422L762.614 315.479L314.158 316.269L287.184 361.308L110.515 361.308L81.6486 407.294C81.9641 407.61 82.1218 407.768 82.4373 408.084C85.4344 411.087 87.0118 414.88 87.0118 418.988C87.0118 423.097 85.2767 427.048 82.4373 429.892C79.4403 432.895 75.6545 434.475 71.5532 434.475C67.452 434.475 63.5085 432.737 60.6691 429.892C57.6721 426.89 56.0946 423.097 56.0946 418.988C55.9369 414.721 57.5144 410.613 60.3537 407.768ZM71.3954 429.26C74.2348 429.26 76.9163 428.154 78.8092 426.258C80.8598 424.203 81.8063 421.675 81.8063 418.83C81.8063 415.986 80.7022 413.299 78.8093 411.403C76.7587 409.349 74.2348 408.4 71.3954 408.4C68.5561 408.4 65.8746 409.507 63.9817 411.403C61.9311 413.457 60.9845 415.986 60.9845 418.83C60.9845 421.675 62.0888 424.361 63.9817 426.258C65.8746 428.154 68.5561 429.26 71.3954 429.26ZM206.421 390.069C206.421 395.126 210.365 399.077 215.412 399.077C219.514 399.077 222.984 396.232 224.088 392.597L313.054 392.597L344.286 345.505L437.669 345.505C438.773 349.139 442.243 351.984 446.344 351.984C451.392 351.984 455.336 348.033 455.336 342.976C455.336 337.919 451.392 333.969 446.344 333.969C442.243 333.969 438.773 336.813 437.669 340.448L341.763 340.448L310.53 387.54L224.088 387.54C222.984 383.906 219.514 381.061 215.412 381.061C210.365 381.061 206.421 385.012 206.421 390.069ZM417.287 76.9551L430.537 94.3382L635.126 94.4962L635.126 89.4393L433.218 89.4394L419.968 72.0562L365.39 72.0562L349.143 88.3332L222.635 88.333L204.968 106.032L125.467 106.032C124.362 102.398 121.05 99.7112 116.949 99.7112C111.901 99.7112 107.958 103.662 107.958 108.719C107.958 113.776 111.901 117.726 116.949 117.726C121.05 117.726 124.678 114.724 125.624 110.931L207.018 110.931L224.685 93.232L351.193 93.232L367.441 76.9551L417.287 76.9551ZM197.635 41.3098L166.876 15.8671L136.274 15.867L101.414 41.3097L60.7165 41.3096C60.2432 44.3121 58.6658 47.1567 56.4575 49.3691C53.4604 52.3716 49.6746 53.9519 45.5734 53.9519C41.4721 53.9519 37.5286 52.2136 34.6893 49.3691C31.6922 46.3665 30.1148 42.5738 30.1148 38.4651C30.1148 34.3563 31.85 30.4056 34.6893 27.5611C37.6864 24.5585 41.4721 22.9782 45.5734 22.9782C49.6746 22.9782 53.6181 24.7166 56.4575 27.5611C58.8236 29.9315 60.401 33.0921 60.8742 36.4107L99.9939 36.4107L134.855 10.9681L168.927 10.9682L199.686 36.4109L579.998 36.2529L579.998 41.3099L197.635 41.3098ZM45.4156 27.8772C42.5763 27.8772 39.8947 28.9833 38.0018 30.8797C35.9512 32.934 35.0048 35.4625 35.0048 38.3071C35.0048 41.1516 36.1089 43.838 38.0018 45.7344C40.0525 47.7888 42.5763 48.7369 45.4156 48.7369C48.2549 48.7369 50.9366 47.6308 52.8295 45.7344C54.4069 44.1541 55.511 42.0997 55.8265 39.8873L55.8265 36.7267C55.511 34.5143 54.4068 32.46 52.8294 30.8797C50.7788 28.8253 48.255 27.8772 45.4156 27.8772Z" fill="white"/>
</g>
</svg>
